<?xml version="1.0" encoding="UTF-8" standalone="no"?>
<svg
   width="139"
   height="81"
   viewBox="0 0 139 81"
   fill="none"
   version="1.1"
   id="svg12"
   sodipodi:docname="logo.svg"
   inkscape:version="1.1.2 (0a00cf5339, 2022-02-04)"
   xmlns:inkscape="http://www.inkscape.org/namespaces/inkscape"
   xmlns:sodipodi="http://sodipodi.sourceforge.net/DTD/sodipodi-0.dtd"
   xmlns="http://www.w3.org/2000/svg"
   xmlns:svg="http://www.w3.org/2000/svg">
  <defs
     id="defs16" />
  <sodipodi:namedview
     id="namedview14"
     pagecolor="#ffffff"
     bordercolor="#666666"
     borderopacity="1.0"
     inkscape:pageshadow="2"
     inkscape:pageopacity="0.0"
     inkscape:pagecheckerboard="0"
     showgrid="false"
     inkscape:zoom="9.6258993"
     inkscape:cx="90.744768"
     inkscape:cy="40.567638"
     inkscape:window-width="3770"
     inkscape:window-height="2096"
     inkscape:window-x="70"
     inkscape:window-y="27"
     inkscape:window-maximized="1"
     inkscape:current-layer="svg12" />
  <path
     d="M15.7275 52.2121V28.9877H21.3409V38.8082H21.6471L29.3243 28.9877H35.9355L27.7027 39.3525L36.083 52.2121H29.3696L23.5862 43.0834L21.3409 45.9184V52.2121H15.7275Z"
     fill="#24232A"
     id="path2"
     style="fill:#000000;fill-opacity:1" />
  <path
     d="M58.6979 40.5999C58.6979 43.1552 58.2065 45.3211 57.2237 47.0978C56.2409 48.8744 54.9103 50.2238 53.232 51.1462C51.5612 52.0685 49.6863 52.5296 47.6073 52.5296C45.5207 52.5296 43.6421 52.0647 41.9713 51.1348C40.3005 50.2049 38.9737 48.8555 37.9909 47.0864C37.0157 45.3098 36.5281 43.1476 36.5281 40.5999C36.5281 38.0446 37.0157 35.8786 37.9909 34.102C38.9737 32.3254 40.3005 30.976 41.9713 30.0536C43.6421 29.1313 45.5207 28.6701 47.6073 28.6701C49.6863 28.6701 51.5612 29.1313 53.232 30.0536C54.9103 30.976 56.2409 32.3254 57.2237 34.102C58.2065 35.8786 58.6979 38.0446 58.6979 40.5999ZM52.9598 40.5999C52.9598 39.0879 52.7444 37.8102 52.3134 36.7669C51.8901 35.7237 51.2777 34.9336 50.4764 34.3969C49.6825 33.8601 48.7262 33.5917 47.6073 33.5917C46.496 33.5917 45.5396 33.8601 44.7383 34.3969C43.9369 34.9336 43.3208 35.7237 42.8898 36.7669C42.4665 37.8102 42.2548 39.0879 42.2548 40.5999C42.2548 42.1119 42.4665 43.3895 42.8898 44.4328C43.3208 45.4761 43.9369 46.2661 44.7383 46.8029C45.5396 47.3397 46.496 47.6081 47.6073 47.6081C48.7262 47.6081 49.6825 47.3397 50.4764 46.8029C51.2777 46.2661 51.8901 45.4761 52.3134 44.4328C52.7444 43.3895 52.9598 42.1119 52.9598 40.5999Z"
     fill="#24232A"
     id="path4"
     style="fill:#000000;fill-opacity:1" />
  <path
     d="M61.9752 52.2121V28.9877H71.5689C73.3077 28.9877 74.8084 29.3014 76.0709 29.9289C77.341 30.5488 78.32 31.4409 79.008 32.6051C79.6959 33.7618 80.0399 35.134 80.0399 36.7216C80.0399 38.3319 79.6884 39.7002 78.9853 40.8267C78.2822 41.9456 77.2843 42.7999 75.9915 43.3895C74.6987 43.9717 73.1678 44.2627 71.3988 44.2627H65.3318V39.8401H70.3555C71.2022 39.8401 71.9091 39.7305 72.4761 39.5112C73.0507 39.2844 73.4854 38.9442 73.7802 38.4906C74.075 38.0295 74.2225 37.4398 74.2225 36.7216C74.2225 36.0034 74.075 35.4099 73.7802 34.9412C73.4854 34.4649 73.0507 34.1096 72.4761 33.8752C71.9015 33.6333 71.1947 33.5123 70.3555 33.5123H67.5885V52.2121H61.9752ZM75.0503 41.5978L80.8337 52.2121H74.7101L69.04 41.5978H75.0503Z"
     fill="#24232A"
     id="path6"
     style="fill:#000000;fill-opacity:1" />
  <path
     d="M83.1187 52.2121V28.9877H99.3124V33.5464H88.7321V38.3092H98.4845V42.8792H88.7321V47.6534H99.3124V52.2121H83.1187Z"
     fill="#24232A"
     id="path8"
     style="fill:#000000;fill-opacity:1" />
  <path
     d="M108.509 28.9877L112.75 36.3247H112.932L117.218 28.9877H123.501L116.493 40.5999L123.728 52.2121H117.286L112.932 44.7957H112.75L108.396 52.2121H102L109.201 40.5999L102.181 28.9877H108.509Z"
     fill="#24232A"
     id="path10"
     style="fill:#000000;fill-opacity:1" />
</svg>
